<svg xmlns:x="http://ns.adobe.com/Extensibility/1.0/" xmlns:i="http://ns.adobe.com/AdobeIllustrator/10.0/" xmlns:graph="http://ns.adobe.com/Graphs/1.0/" xmlns="http://www.w3.org/2000/svg" xmlns:xlink="http://www.w3.org/1999/xlink" version="1.1" x="0px" y="0px" viewBox="0 0 100 125" enable-background="new 0 0 100 100" xml:space="preserve"><metadata><sfw xmlns="http://ns.adobe.com/SaveForWeb/1.0/"><slices/><sliceSourceBounds width="1448.1" height="1444.6" x="0.8" y="-1448.4" bottomLeftOrigin="true"/></sfw></metadata><path d="M13.4,75.9c-1.2,3.3-3.4,7-7.4,9.6c-1,0.7-0.7,2.2,0.5,2.4c4.2,0.6,11.4,0.7,18-3.3c7.4,4.2,16.1,6.6,25.6,6.6  c26,0,47.1-18.5,47.1-41.3S76,8.7,50,8.7C24,8.7,2.9,27.2,2.9,50C2.9,59.8,6.8,68.8,13.4,75.9z M49.3,27.5c2.9,0,5.2,2.3,5.2,5.2  c0,2.9-2.3,5.2-5.2,5.2s-5.2-2.3-5.2-5.2C44.1,29.9,46.4,27.5,49.3,27.5z M42.8,63.1h2.6V48.9h-2.6v-7h2.6h7.8h1.3v21.2h2.6v7h-2.6  h-9.1h-2.6V63.1z"/><text x="0" y="115" fill="#000000" font-size="5px" font-weight="bold" font-family="'Helvetica Neue', Helvetica, Arial-Unicode, Arial, Sans-serif">Created by Gregor Cresnar</text><text x="0" y="120" fill="#000000" font-size="5px" font-weight="bold" font-family="'Helvetica Neue', Helvetica, Arial-Unicode, Arial, Sans-serif">from the Noun Project</text></svg>