<svg xmlns="http://www.w3.org/2000/svg" xmlns:xlink="http://www.w3.org/1999/xlink" version="1.1" x="0px" y="0px" viewBox="-1425.393 1582.162 96 120" enable-background="new -1425.393 1582.162 96 96" xml:space="preserve"><path fill="#000000" d="M-1372.634,1647.374v1.5c10.359,0,18.787-8.427,18.787-18.785c0-10.359-8.428-18.788-18.787-18.788v1.5  c9.532,0,17.287,7.756,17.287,17.288C-1355.347,1639.62-1363.102,1647.374-1372.634,1647.374z"/><path fill="#000000" d="M-1372.634,1599.816v1.5c15.865,0,28.772,12.907,28.772,28.772c0,15.864-12.907,28.771-28.772,28.771v1.5  c16.692,0,30.272-13.58,30.272-30.271C-1342.361,1613.396-1355.941,1599.816-1372.634,1599.816z"/><path fill="#000000" d="M-1388.111,1584.338h-0.75v0.036c-13.06,0.75-23.563,20.961-23.563,45.714s10.503,44.964,23.563,45.714v0.01  h0.198c0.184,0.008,0.367,0.026,0.552,0.026h0.75v-0.026h9.388v-18.982h-10.197c-7.497-0.063-13.586-12.033-13.586-26.741  c0-14.746,6.122-26.742,13.646-26.742h0.75v-0.025h9.388v-18.982h-9.388H-1388.111z M-1379.474,1674.312h-7.888v-15.982h7.888  V1674.312z M-1403.257,1630.088c0,15.105,6.391,27.479,14.396,28.21v16.017c-12.233-0.771-22.063-20.314-22.063-44.227  s9.83-43.456,22.063-44.227v16.019C-1396.866,1602.61-1403.257,1614.983-1403.257,1630.088z M-1379.474,1585.838v15.982h-7.888  v-15.982H-1379.474z"/><text x="-1425.393" y="1693.162" fill="#000000" font-size="5px" font-weight="bold" font-family="'Helvetica Neue', Helvetica, Arial-Unicode, Arial, Sans-serif">Created by faisalovers</text><text x="-1425.393" y="1698.162" fill="#000000" font-size="5px" font-weight="bold" font-family="'Helvetica Neue', Helvetica, Arial-Unicode, Arial, Sans-serif">from the Noun Project</text></svg>