<svg xmlns="http://www.w3.org/2000/svg" data-name="Layer 1" viewBox="0 0 100 125" x="0px" y="0px"><title>Artboard 1</title><path d="M5.59,86.24a6.59,6.59,0,0,0,8.17,8.17l13.41-3.89A46.5,46.5,0,1,0,9.48,72.84ZM20.65,20.65a41.5,41.5,0,1,1,8.12,65,2.5,2.5,0,0,0-2-.25L12.36,89.61a1.59,1.59,0,0,1-2-2l4.19-14.43a2.5,2.5,0,0,0-.25-2A41.44,41.44,0,0,1,20.65,20.65Z"/><path d="M49.25,78.48h0A19.63,19.63,0,0,0,70,74l2.35-2.35a6.27,6.27,0,0,0-1.71-10.08l-12.44-6a2.5,2.5,0,0,0-2.89.52l-3.87,4-.1,0A20.4,20.4,0,0,1,39.93,48.7l4-4a2.5,2.5,0,0,0,.48-2.85l-6-12.44a6.27,6.27,0,0,0-10.08-1.71L26,30a19.65,19.65,0,0,0-4.5,20.73A47.31,47.31,0,0,0,49.25,78.48ZM29.55,33.55,31.9,31.2a1.27,1.27,0,0,1,2,.35L39.16,42.4l-2.95,2.95a4.62,4.62,0,0,0-1,4.93A25.41,25.41,0,0,0,49.47,64.71l.29.11a4.68,4.68,0,0,0,5.12-1.11l2.75-2.86,10.81,5.21a1.27,1.27,0,0,1,.35,2l-2.35,2.35A14.64,14.64,0,0,1,51,73.8h0A42.32,42.32,0,0,1,26.2,49,14.64,14.64,0,0,1,29.55,33.55Z"/><path d="M61.82,40.68A2.49,2.49,0,0,0,63.58,40l4.79-4.79a2.5,2.5,0,0,0-3.54-3.54L60,36.42a2.5,2.5,0,0,0,1.77,4.27Z"/><path d="M63.9,48.22a2.5,2.5,0,0,0,2.36,2.63l6.11.34h.14a2.5,2.5,0,0,0,.14-5l-6.11-.34A2.5,2.5,0,0,0,63.9,48.22Z"/><path d="M51.64,36.1h.14a2.5,2.5,0,0,0,2.36-2.63l-.34-6.11a2.5,2.5,0,1,0-5,.28l.34,6.11A2.5,2.5,0,0,0,51.64,36.1Z"/><text x="0" y="115" fill="#000000" font-size="5px" font-weight="bold" font-family="'Helvetica Neue', Helvetica, Arial-Unicode, Arial, Sans-serif">Created by Gregor Cresnar</text><text x="0" y="120" fill="#000000" font-size="5px" font-weight="bold" font-family="'Helvetica Neue', Helvetica, Arial-Unicode, Arial, Sans-serif">from the Noun Project</text></svg>