<svg xmlns="http://www.w3.org/2000/svg" xmlns:xlink="http://www.w3.org/1999/xlink" version="1.1" x="0px" y="0px" viewBox="0 0 55 75" enable-background="new 0 0 55 60" xml:space="preserve"><g><path fill="#000000" d="M43,34.05V7c0-0.55-0.45-1-1-1h-8V4c0-0.55-0.45-1-1-1h-6V1c0-0.55-0.45-1-1-1h-9c-0.55,0-1,0.45-1,1v2h-6   C9.45,3,9,3.45,9,4v2H1C0.45,6,0,6.45,0,7v50c0,0.55,0.45,1,1,1h34.1c2,1.26,4.36,2,6.9,2c7.17,0,13-5.83,13-13   C55,40.17,49.7,34.56,43,34.05z M18,2h7v2v2h-7V4V2z M11,5h5v2c0,0.55,0.45,1,1,1h9c0.55,0,1-0.45,1-1V5h5v2v2H11V7V5z M2,56V8h7v2   c0,0.55,0.45,1,1,1h23c0.55,0,1-0.45,1-1V8h7v26.04c-0.06,0-0.11,0.02-0.17,0.02c-0.2,0.02-0.39,0.05-0.58,0.07   c-0.23,0.03-0.46,0.06-0.68,0.1c-0.19,0.04-0.38,0.08-0.57,0.13c-0.22,0.05-0.44,0.1-0.65,0.17c-0.19,0.06-0.37,0.12-0.55,0.18   c-0.21,0.07-0.42,0.15-0.62,0.23c-0.18,0.07-0.36,0.15-0.53,0.23c-0.2,0.09-0.4,0.18-0.59,0.29c-0.17,0.09-0.34,0.18-0.51,0.28   c-0.19,0.11-0.37,0.22-0.56,0.34c-0.16,0.1-0.32,0.21-0.48,0.32c-0.18,0.13-0.35,0.26-0.52,0.39c-0.15,0.12-0.3,0.24-0.44,0.36   c-0.17,0.14-0.32,0.29-0.48,0.44c-0.14,0.13-0.27,0.26-0.41,0.4c-0.15,0.16-0.3,0.32-0.44,0.48c-0.12,0.14-0.25,0.28-0.37,0.43   c-0.14,0.17-0.27,0.35-0.4,0.53c-0.11,0.15-0.22,0.3-0.32,0.46c-0.12,0.19-0.24,0.38-0.35,0.57c-0.09,0.16-0.19,0.32-0.28,0.48   c-0.11,0.2-0.2,0.41-0.3,0.62c-0.08,0.17-0.16,0.33-0.23,0.5c-0.09,0.22-0.17,0.44-0.25,0.67c-0.06,0.17-0.12,0.33-0.17,0.5   c-0.07,0.24-0.13,0.49-0.19,0.73c-0.04,0.16-0.09,0.32-0.12,0.49c-0.06,0.27-0.09,0.56-0.13,0.84c-0.02,0.14-0.05,0.28-0.06,0.42   C29.02,46.13,29,46.56,29,47c0,0.44,0.02,0.87,0.07,1.29c0.02,0.16,0.05,0.32,0.07,0.48c0.04,0.26,0.07,0.53,0.12,0.79   c0.04,0.18,0.09,0.34,0.13,0.52c0.06,0.24,0.11,0.48,0.18,0.71c0.05,0.16,0.11,0.31,0.16,0.47c0.08,0.24,0.17,0.49,0.27,0.72   c0.06,0.13,0.12,0.26,0.18,0.39c0.12,0.25,0.23,0.51,0.36,0.75c0.06,0.11,0.12,0.21,0.18,0.32c0.15,0.26,0.3,0.52,0.46,0.76   c0.06,0.09,0.13,0.18,0.19,0.27c0.18,0.25,0.36,0.5,0.55,0.74c0.07,0.09,0.15,0.17,0.22,0.26c0.15,0.18,0.3,0.36,0.47,0.54H2z    M42,58c-2.26,0-4.36-0.69-6.11-1.86c-0.34-0.23-0.66-0.48-0.97-0.74c-0.11-0.09-0.21-0.19-0.31-0.29   c-0.2-0.18-0.39-0.36-0.57-0.55c-0.12-0.12-0.23-0.25-0.34-0.38c-0.16-0.19-0.32-0.38-0.47-0.58c-0.1-0.13-0.2-0.25-0.29-0.38   c-0.22-0.32-0.43-0.65-0.61-0.99c-0.04-0.08-0.08-0.16-0.12-0.25c-0.15-0.29-0.28-0.58-0.4-0.87c-0.05-0.13-0.1-0.26-0.14-0.4   c-0.09-0.26-0.18-0.53-0.25-0.8c-0.04-0.14-0.07-0.28-0.11-0.42c-0.07-0.29-0.12-0.57-0.16-0.87c-0.02-0.12-0.04-0.25-0.06-0.37   C31.03,47.85,31,47.43,31,47c0-6.07,4.93-11,11-11s11,4.93,11,11S48.07,58,42,58z"/><path fill="#000000" d="M48,46h-5v-5c0-0.55-0.45-1-1-1s-1,0.45-1,1v5h-5c-0.55,0-1,0.45-1,1s0.45,1,1,1h5v5c0,0.55,0.45,1,1,1   s1-0.45,1-1v-5h5c0.55,0,1-0.45,1-1S48.55,46,48,46z"/><path fill="#000000" d="M7,18h13c0.55,0,1-0.45,1-1s-0.45-1-1-1H7c-0.55,0-1,0.45-1,1S6.45,18,7,18z"/><path fill="#000000" d="M20,46H7c-0.55,0-1,0.45-1,1s0.45,1,1,1h13c0.55,0,1-0.45,1-1S20.55,46,20,46z"/><path fill="#000000" d="M7,24h29c0.55,0,1-0.45,1-1s-0.45-1-1-1H7c-0.55,0-1,0.45-1,1S6.45,24,7,24z"/><path fill="#000000" d="M7,36h24c0.55,0,1-0.45,1-1s-0.45-1-1-1H7c-0.55,0-1,0.45-1,1S6.45,36,7,36z"/><path fill="#000000" d="M26,40H7c-0.55,0-1,0.45-1,1s0.45,1,1,1h19c0.55,0,1-0.45,1-1S26.55,40,26,40z"/><path fill="#000000" d="M7,30h14c0.55,0,1-0.45,1-1s-0.45-1-1-1H7c-0.55,0-1,0.45-1,1S6.45,30,7,30z"/><path fill="#000000" d="M36,28h-7c-0.55,0-1,0.45-1,1s0.45,1,1,1h7c0.55,0,1-0.45,1-1S36.55,28,36,28z"/><path fill="#000000" d="M24.29,28.29C24.11,28.48,24,28.74,24,29c0,0.26,0.11,0.52,0.29,0.71C24.48,29.9,24.74,30,25,30   c0.26,0,0.52-0.1,0.71-0.29C25.89,29.52,26,29.26,26,29c0-0.26-0.11-0.52-0.29-0.71C25.34,27.92,24.66,27.92,24.29,28.29z"/></g><text x="0" y="75" fill="#000000" font-size="5px" font-weight="bold" font-family="'Helvetica Neue', Helvetica, Arial-Unicode, Arial, Sans-serif">Created by Ben Davis</text><text x="0" y="80" fill="#000000" font-size="5px" font-weight="bold" font-family="'Helvetica Neue', Helvetica, Arial-Unicode, Arial, Sans-serif">from the Noun Project</text></svg>