<?xml version="1.0" encoding="utf-8"?>
<!-- Generator: Adobe Illustrator 21.1.0, SVG Export Plug-In . SVG Version: 6.00 Build 0)  -->
<svg version="1.1" id="Layer_1" xmlns="http://www.w3.org/2000/svg" xmlns:xlink="http://www.w3.org/1999/xlink" x="0px" y="0px"
	 viewBox="0 0 200 200" style="enable-background:new 0 0 200 200;" xml:space="preserve">
<style type="text/css">
	.st0{fill:#FFFFFF;}
</style>
<g>
	<polygon class="st0" points="128.3,129 128.3,106.2 149.3,106.2 149.3,91.2 128.3,91.2 128.3,69.9 151.4,69.9 151.4,78.1 
		166.6,78.1 166.6,55 105.7,55 105.7,69.9 111.4,69.9 111.4,129 105.7,129 105.7,144 133.8,144 133.8,129 128.3,129 	"/>
	<path class="st0" d="M98.6,110.4V69.9h5.6V55H76v14.9h5.5v35.5c0,14.9-1.7,22-12.4,22c-10.7,0-12.4-7.1-12.4-22V69.9h5.4V55H34
		v14.9h5.6v40.5c0,8.8,0,16.1,4.2,22.6c4.7,7.4,13.1,12.1,25.4,12.1C90.9,145,98.6,133.7,98.6,110.4L98.6,110.4z"/>
</g>
</svg>
