<?xml version="1.0" encoding="utf-8"?>
<!-- Generator: Adobe Illustrator 21.1.0, SVG Export Plug-In . SVG Version: 6.00 Build 0)  -->
<svg version="1.1" id="Layer_1" xmlns="http://www.w3.org/2000/svg" xmlns:xlink="http://www.w3.org/1999/xlink" x="0px" y="0px"
	 viewBox="0 0 200 50" style="enable-background:new 0 0 200 50;" xml:space="preserve">
<style type="text/css">
	.st0{fill:#F47836;}
	.st1{fill:#00539B;}
</style>
<polygon class="st0" points="58.8,9.2 58.8,43.1 60.3,43.1 60.3,9.2 58.8,9.2 "/>
<path class="st1" d="M171.8,18c0.1,0.4,0.4,0.6,0.7,0.8c0.3,0.2,0.8,0.3,1.4,0.3c0.5,0,0.9-0.1,1.3-0.2c0.4-0.1,0.8-0.4,1.2-0.7
	c0.4-0.3,0.7-0.5,0.9-0.8c0.3-0.3,0.5-0.8,0.7-1.5c0.2-0.6,0.3-1.3,0.3-1.9c0-0.3,0-0.6-0.1-0.9c-0.1-0.3-0.2-0.5-0.4-0.7
	c-0.2-0.2-0.4-0.4-0.8-0.5c-0.3-0.1-0.7-0.2-1.2-0.2c-0.5,0-1,0.1-1.4,0.3s-0.9,0.4-1.2,0.7c-0.4,0.3-0.6,0.5-0.8,0.7
	c-0.2,0.3-0.5,0.8-0.7,1.4c-0.2,0.7-0.3,1.3-0.3,1.9C171.6,17.2,171.7,17.6,171.8,18L171.8,18z M173.7,14.5c0.2-0.8,0.5-1.4,0.7-1.7
	c0.3-0.3,0.6-0.4,1-0.4c0.4,0,0.7,0.1,0.9,0.4c0.2,0.3,0.4,0.7,0.4,1.3c0,0.7-0.1,1.4-0.3,2.2c-0.1,0.5-0.3,0.9-0.5,1.2
	c-0.2,0.3-0.4,0.5-0.6,0.7c-0.2,0.1-0.4,0.2-0.7,0.2c-0.4,0-0.7-0.1-1-0.4c-0.2-0.3-0.3-0.7-0.3-1.3
	C173.3,16.1,173.4,15.3,173.7,14.5L173.7,14.5z M180.4,12.8c0.3,0,0.7,0,1,0l-1.1,5.5c-0.3,1.5-0.5,2.5-0.7,3
	c-0.1,0.2-0.2,0.4-0.3,0.5c-0.1,0.1-0.3,0.1-0.4,0.1c-0.1,0-0.3-0.1-0.4-0.2c-0.1-0.1-0.2-0.3-0.3-0.5l-0.2,0
	c-0.1,0.3-0.1,0.5-0.2,0.7c-0.1,0.2-0.2,0.5-0.3,0.9c0.2,0.1,0.4,0.1,0.6,0.1c0.2,0,0.5-0.1,0.7-0.2c0.5-0.2,0.9-0.6,1.4-1.2
	c0.5-0.5,0.8-1.2,1.1-1.9c0.3-0.7,0.6-1.8,1-3.4l0.8-3.5c0.2,0,0.4,0,0.7,0c0.5,0,0.9,0,1.1,0c0-0.2,0.1-0.5,0.2-0.8l-0.1-0.1
	c-0.2,0-0.4,0.1-0.7,0.1c-0.5,0-0.9,0-1,0h-0.2c0.1-0.6,0.3-1.3,0.4-1.9c0.1-0.2,0.1-0.4,0.2-0.5c0.1-0.1,0.2-0.2,0.3-0.3
	c0.1-0.1,0.2-0.1,0.4-0.1c0.2,0,0.3,0.1,0.5,0.2c0.2,0.1,0.4,0.3,0.6,0.7l0.2,0c0.1-0.6,0.2-1.2,0.4-1.9C186,8,185.8,8,185.6,8
	c-0.3,0-0.5,0-0.7,0.1c-0.2,0.1-0.5,0.3-1,0.7c-0.5,0.4-1,0.8-1.4,1.2c-0.3,0.3-0.5,0.5-0.6,0.8c-0.1,0.2-0.2,0.4-0.3,0.9
	c0,0.2-0.1,0.3-0.1,0.4c-0.2,0.1-0.5,0.2-0.8,0.3c-0.3,0.1-0.6,0.2-0.7,0.2l-0.1,0.4C180.1,12.8,180.2,12.8,180.4,12.8L180.4,12.8
	L180.4,12.8z"/>
<path class="st1" d="M78.8,29.3h-1.3c0,0.9-0.1,1.5-0.2,1.7c-0.1,0.2-0.2,0.3-0.3,0.3c-0.3,0.1-1.2,0.2-2.5,0.2
	c-0.5,0-1.3,0-2.6-0.1v-2.1c0-2.6,0.1-4.4,0.2-5.4c0.3,0,0.8,0,1.6-0.1c0.8,0,1.3,0,1.4,0c0.9,0,1.7,0.1,2.3,0.2
	c0.7,0.1,1.1,0.2,1.3,0.4c0.1,0,0.1,0.1,0.1,0.1c0,0.1,0.1,0.4,0.1,0.8c0.1,0.8,0.1,1.4,0.1,1.6h1.2c0-0.7,0.1-1.4,0.1-2.3
	c0.1-0.9,0.2-1.6,0.3-2.2l-0.1-0.2c-0.9-0.1-1.9-0.2-2.9-0.2l-7.3,0.1L65,22v1.3c1,0.1,1.6,0.1,1.8,0.2c0.2,0.1,0.4,0.1,0.4,0.2
	c0.1,0.1,0.1,0.1,0.1,0.3c0.1,0.3,0.1,0.9,0.2,1.7c0.1,2.7,0.1,4.1,0.1,4.2V36c0,0.5,0,1.4-0.1,2.6c-0.1,1.2-0.1,2-0.1,2.2
	c-0.1,0.4-0.1,0.7-0.2,0.8c-0.1,0.1-0.1,0.1-0.2,0.2c-0.2,0.1-0.9,0.1-2,0.1v1.3c1.9-0.1,3.2-0.1,4.1-0.1l5.9,0.1V42
	c-1.4-0.1-2.2-0.2-2.4-0.2c-0.2-0.1-0.3-0.2-0.4-0.3c-0.1-0.2-0.2-0.7-0.2-1.7c-0.1-1-0.1-2.6-0.1-5v-1.7c0.6,0,1,0,1.2,0
	c1.6,0,2.8,0.1,3.5,0.2c0.3,0.1,0.5,0.2,0.5,0.3c0.1,0.3,0.2,1,0.3,2.3h1.3C78.8,33.2,78.8,31,78.8,29.3L78.8,29.3L78.8,29.3z
	 M87.2,43.1c0.7,0,1.8,0,3.5,0.1c2.2,0.1,3.4,0.1,3.6,0.1c1.3,0,2.2,0,2.9-0.1c0.3,0,0.6-0.1,0.9-0.2c0-0.2,0.1-0.8,0.1-1.7l0.4-3.1
	c0-0.1,0-0.2,0-0.5h-1.3c-0.2,1-0.4,1.9-0.6,2.6c-0.1,0.3-0.2,0.5-0.3,0.6c-0.1,0.1-0.3,0.1-0.7,0.2c-1.1,0.2-2.5,0.3-4,0.3
	c-0.5,0-1.5,0-2.8-0.1c0-0.3,0-1.2,0-2.6c0-1.4,0-2.8,0-4.3c0-2.7,0-4.2,0-4.4c0-1.7,0-3.1,0.1-4.2c0-1.1,0.1-1.7,0.1-1.9
	c0-0.1,0.1-0.2,0.2-0.3c0.3-0.1,0.9-0.2,2.1-0.3V22c-1.6,0.1-3.4,0.1-5.2,0.1c-1.6,0-3.1,0-4.4-0.1v1.3c1.3,0.1,2.1,0.2,2.3,0.3
	c0.1,0.1,0.2,0.2,0.2,0.3c0.1,0.3,0.2,1.4,0.2,3.3c0,0.7,0,2.7,0,5.9c0,2.2,0,4-0.1,5.6c0,1.6-0.1,2.5-0.1,2.7c0,0.1,0,0.1-0.1,0.2
	c-0.1,0.1-0.2,0.2-0.4,0.3c-0.5,0.3-0.8,0.5-1.1,0.6v0.8C84.7,43.1,86.2,43.1,87.2,43.1L87.2,43.1L87.2,43.1z M100.3,38.9
	c0.9,1.6,2.2,2.8,3.8,3.6c1.6,0.8,3.6,1.2,5.8,1.2c2.1,0,4-0.3,5.6-1c1.2-0.5,2.3-1.2,3.2-2.2c0.9-0.9,1.6-2,2.1-3.2
	c0.7-1.6,1-3.4,1-5.3c0-1.1-0.1-2.1-0.3-3.1c-0.2-0.9-0.6-1.8-1-2.6c-0.4-0.8-1.1-1.5-1.9-2.3c-0.9-0.7-1.8-1.3-2.9-1.7
	c-1.5-0.5-3.2-0.8-5-0.8c-1.8,0-3.5,0.3-5.1,0.8c-1.2,0.4-2.3,1.1-3.4,2.1c-1,1-1.8,2.1-2.4,3.5c-0.6,1.4-0.8,3-0.8,4.8
	C98.9,35.3,99.3,37.3,100.3,38.9L100.3,38.9z M104.2,27.5c0.5-1.4,1.2-2.4,2.3-3.1c1-0.7,2.3-1,3.8-1c1.3,0,2.3,0.2,3.1,0.7
	c0.8,0.4,1.5,1.1,2,1.9c0.6,0.8,1,1.8,1.3,3c0.3,1.2,0.5,2.5,0.5,3.9c0,2.1-0.3,3.8-0.9,5.3c-0.6,1.4-1.4,2.5-2.4,3.1
	c-1,0.6-2.1,0.9-3.4,0.9c-1.4,0-2.6-0.3-3.6-1c-1-0.6-1.8-1.7-2.5-3.3c-0.6-1.5-1-3.5-1-5.8C103.5,30.3,103.8,28.8,104.2,27.5
	L104.2,27.5z M124,23.6c0.1,0.1,0.2,0.1,0.2,0.3c0.1,0.3,0.2,1,0.2,2.3l0.1,3.2v5.6l-0.1,4.4c0,0.8-0.1,1.4-0.2,1.8
	c0,0.2-0.1,0.4-0.1,0.4c-0.1,0.1-0.1,0.1-0.3,0.2c-0.2,0.1-0.9,0.1-2,0.2v1.3c1.3-0.1,2.8-0.1,4.4-0.1c1.8,0,3.5,0,5.2,0.1v-1.3
	c-1,0-1.6,0-1.8-0.1c-0.2,0-0.3-0.1-0.4-0.2c-0.1-0.1-0.2-0.1-0.2-0.2c-0.1-0.2-0.1-0.5-0.2-1.1c0-0.3-0.1-1.5-0.1-3.5
	c0-1.7,0-3.3,0-4.8c0-1,0-2.9,0.1-5.7c0-1.3,0.1-2.1,0.1-2.5c0.5-0.1,1-0.1,1.4-0.1c1.1,0,1.8,0.1,2.3,0.2c0.7,0.2,1.2,0.7,1.7,1.3
	c0.4,0.6,0.7,1.4,0.7,2.3c0,0.9-0.2,1.7-0.6,2.5c-0.4,0.7-0.9,1.3-1.6,1.5c-0.6,0.3-1.5,0.4-2.7,0.4l-0.2,0.5c0.3,0.2,0.6,0.6,0.9,1
	c0.6,0.9,1.4,2.1,2.4,3.6l3.2,5.3c0.2,0.4,0.3,0.6,0.4,0.9c0.8,0,1.6-0.1,2.4-0.1c0.7,0,1.8,0,3.4,0.1v-1.3c-0.5,0-0.8,0-1-0.1
	c-0.2-0.1-0.3-0.2-0.5-0.4c-0.2-0.2-0.6-0.8-1.4-1.8c-0.1-0.1-0.4-0.6-1-1.5l-2.3-3.5c-0.1-0.1-0.1-0.2-0.2-0.3
	c-0.1-0.1-0.2-0.4-0.6-0.9c-0.3-0.5-0.6-0.9-0.9-1.4c1.6-0.6,2.7-1.4,3.5-2.4c0.8-1,1.1-2.1,1.1-3.3c0-1-0.3-1.9-0.8-2.6
	c-0.6-0.7-1.2-1.2-2-1.4c-0.8-0.2-2-0.3-3.6-0.3c-0.8,0-1.9,0-3.1,0.1c-0.8,0-1.7,0.1-2.7,0.1c-1.2,0-2.2,0-2.9,0
	c-1.4,0-2.2-0.1-2.4-0.1v1.2C123.1,23.4,123.8,23.5,124,23.6L124,23.6L124,23.6z M148.2,22.1c-1.6,0-3.1,0-4.4-0.1v1.3
	c1.1,0,1.7,0.1,1.9,0.1c0.2,0,0.3,0.1,0.4,0.2c0.1,0.1,0.1,0.2,0.1,0.3c0.1,0.3,0.1,1.1,0.2,2.4c0,0.6,0,1.9,0,3.9v6.3
	c0,1,0,2.2-0.1,3.4c-0.1,0.8-0.1,1.3-0.1,1.4c0,0.1-0.1,0.2-0.1,0.2c-0.1,0.1-0.2,0.1-0.4,0.2c-0.2,0-0.8,0.1-1.8,0.1v1.3
	c1.3-0.1,2.7-0.1,4.4-0.1c1.9,0,3.6,0,5.3,0.1v-1.3c-1,0-1.6-0.1-1.8-0.1c-0.2,0-0.4-0.1-0.5-0.2c-0.1-0.1-0.2-0.2-0.2-0.3
	c-0.1-0.3-0.2-1-0.2-2l0-2.8v-6.1c0-0.2,0-1.5,0.1-4c0-0.7,0-1.2,0-1.5c0-0.5,0.1-0.8,0.2-1c0-0.1,0.1-0.2,0.2-0.2
	c0.1-0.1,0.2-0.1,0.4-0.2c0.2,0,0.8-0.1,1.8-0.1V22C151.8,22.1,150,22.1,148.2,22.1L148.2,22.1L148.2,22.1z M159.9,43.1l4.5,0.1
	c2,0,3.8-0.2,5.2-0.7c1.4-0.5,2.8-1.2,4-2.2c1.2-1,2.2-2.3,2.9-3.8c0.7-1.5,1.1-3.2,1.1-5.2c0-1.5-0.2-2.9-0.7-4.2
	c-0.3-0.8-0.7-1.5-1.2-2.1c-0.5-0.7-1.2-1.2-2-1.7c-0.8-0.5-1.7-0.8-2.8-1c-1.1-0.2-2.5-0.3-4.3-0.3c-0.8,0-1.8,0-3.1,0.1
	c-1.8,0.1-3,0.1-3.6,0.1l-5.5-0.1v1.2c1.1,0.1,1.7,0.2,1.9,0.3s0.3,0.1,0.4,0.2c0.1,0.1,0.1,0.1,0.1,0.2c0.1,0.4,0.2,1.3,0.2,2.7
	c0.1,2.6,0.1,4.5,0.1,5.9V35c0,3-0.1,5.2-0.2,6.6c-0.3,0.2-0.7,0.5-1,0.7c-0.2,0.1-0.3,0.2-0.4,0.2v0.7L159.9,43.1L159.9,43.1z
	 M161.2,35.4v-3.5c0-4,0.1-6.7,0.2-8.1c0.9-0.1,1.8-0.2,2.6-0.2c2.1,0,3.6,0.2,4.6,0.5c1,0.4,1.9,0.9,2.5,1.8
	c0.7,0.8,1.1,1.7,1.4,2.8c0.3,1.1,0.4,2.2,0.4,3.3c0,1.3-0.1,2.4-0.4,3.5c-0.3,1.1-0.7,2-1.2,2.8c-0.5,0.8-1.1,1.4-1.7,1.8
	c-0.6,0.4-1.2,0.7-2,0.9c-1,0.3-2.2,0.4-3.6,0.4c-0.9,0-1.8-0.1-2.7-0.2C161.3,40.4,161.2,38.4,161.2,35.4L161.2,35.4L161.2,35.4z
	 M178.4,43.1l3.5,0.1V42c-1.2,0-1.9-0.1-2.2-0.3c-0.2-0.1-0.2-0.3-0.2-0.5c0-0.3,0.3-1.2,0.8-2.6l0.7-1.8h7.8l1.3,3.3
	c0.2,0.6,0.3,1,0.3,1.2c0,0.2-0.1,0.3-0.2,0.4c-0.2,0.1-0.8,0.2-2.1,0.2v1.3l5.3-0.1l4.2,0.1V42c-0.3,0-0.5-0.1-0.7-0.1
	c-0.5,0-0.8-0.1-0.9-0.1c-0.1,0-0.2-0.1-0.3-0.2c-0.1-0.1-0.2-0.2-0.3-0.4l-0.6-1.4l-0.9-2.1l-6.8-15.8h-2.2l-1.3,3.4l-3.9,9.8
	c-0.7,1.8-1.3,3.1-1.5,3.7c-0.6,1.3-0.9,2.1-1,2.3c-0.1,0.2-0.2,0.4-0.3,0.5c-0.1,0.1-0.2,0.2-0.4,0.2c-0.2,0-0.6,0.1-1.5,0.2v1.3
	L178.4,43.1L178.4,43.1z M184.7,27.2l3.2,7.8c-0.9,0-2,0-3.1,0c-1.2,0-2.3,0-3.2,0L184.7,27.2L184.7,27.2z"/>
<path class="st1" d="M65.8,9.8c0.1,0.1,0.1,0.1,0.2,0.2c0,0.1,0.1,0.2,0.1,0.4c0,0.5,0,1,0,1.6v1.6l0,1.2c0,0.7,0,1.1,0,1.2
	c0,0.2,0.1,0.5,0.2,0.8c0.1,0.3,0.3,0.5,0.6,0.7c0.3,0.2,0.6,0.4,1,0.5c0.6,0.2,1.2,0.3,1.8,0.3c0.6,0,1-0.1,1.5-0.2
	c0.4-0.1,0.8-0.3,1.1-0.5c0.3-0.2,0.5-0.5,0.7-0.8c0.2-0.3,0.3-0.6,0.3-1c0.1-0.4,0.1-0.8,0.1-1.2v-1.5c0-0.4,0-1,0-1.8
	c0-0.8,0.1-1.2,0.1-1.3c0-0.1,0.1-0.2,0.1-0.2c0.1-0.1,0.3-0.1,0.7-0.1V9.2l-1.4,0c-0.1,0-0.1,0-0.2,0c-0.1,0-0.6,0-1.4,0v0.5
	c0.5,0,0.8,0.1,0.9,0.1c0.1,0,0.1,0.1,0.1,0.2c0,0.1,0.1,0.4,0.1,1c0,0.2,0,0.9,0,2v1.3c0,0.9-0.1,1.5-0.2,1.8
	c-0.1,0.3-0.4,0.6-0.7,0.8c-0.3,0.2-0.8,0.3-1.4,0.3c-0.5,0-0.9-0.1-1.3-0.2c-0.3-0.2-0.6-0.3-0.7-0.6c-0.2-0.2-0.3-0.6-0.3-1
	c0-0.2,0-0.7,0-1.4l0-0.7v-1.5c0-0.9,0-1.5,0.1-1.7c0-0.1,0.1-0.2,0.1-0.2c0.1-0.1,0.4-0.1,0.9-0.1V9.2l-0.2,0l-0.9,0l-0.9,0l-2.1,0
	v0.5L65.8,9.8L65.8,9.8z M77.1,18.1c0.7,0,1.3,0,1.7,0c0.1,0,0.6,0,1.4,0v-0.5c-0.1,0-0.1,0-0.1,0c-0.1,0-0.3,0-0.6-0.1
	c-0.1,0-0.2,0-0.2-0.1c0,0-0.1-0.1-0.1-0.1c0-0.1-0.1-0.4-0.1-0.9c0-0.7,0-1.4,0-2.1v-3.2c2.5,3.1,4.4,5.4,5.8,6.9
	c0.4,0.1,0.7,0.1,1.1,0.2l0.1-0.1c-0.1-0.6-0.1-2.3-0.1-5.1c0-0.4,0-0.9,0-1.7c0-0.8,0.1-1.2,0.1-1.5c0,0,0-0.1,0.1-0.1
	c0.1-0.1,0.4-0.1,0.9-0.1V9.2c-0.7,0-1.2,0-1.6,0c-0.4,0-0.9,0-1.4,0v0.5c0.6,0,0.9,0.1,1,0.1c0.1,0,0.1,0.1,0.1,0.3
	c0.1,0.4,0.1,1.7,0.1,4v1.5c-0.6-0.6-1.3-1.4-2.2-2.5c-1.2-1.5-2.3-2.8-3.2-3.9l-0.6,0l-0.9,0c-0.3,0-0.6,0-1.2,0v0.5
	c0.4,0,0.7,0.1,0.8,0.1c0.1,0,0.2,0.1,0.2,0.1c0,0,0.1,0.1,0.1,0.2c0,0.1,0,0.3,0,0.6l0,1.8v2c0,0.6,0,1,0,1.4c0,0.6-0.1,1-0.1,1.2
	c0,0.1,0,0.2-0.1,0.2c0,0-0.1,0.1-0.1,0.1c-0.1,0-0.4,0-0.9,0.1V18.1L77.1,18.1z M91.7,9.2c-0.7,0-1.3,0-1.8,0v0.6
	c0.5,0,0.7,0,0.8,0.1c0.1,0,0.1,0,0.2,0.1c0,0,0,0.1,0.1,0.1c0,0.1,0.1,0.5,0.1,1c0,0.2,0,0.8,0,1.6v2.7c0,0.4,0,0.9-0.1,1.4
	c0,0.3,0,0.5,0,0.6c0,0,0,0.1-0.1,0.1c0,0-0.1,0.1-0.2,0.1c-0.1,0-0.3,0-0.8,0v0.6c0.5,0,1.1,0,1.8,0c0.8,0,1.5,0,2.2,0v-0.6
	c-0.4,0-0.7,0-0.8,0c-0.1,0-0.2,0-0.2-0.1c0,0-0.1-0.1-0.1-0.1c0-0.1-0.1-0.4-0.1-0.9l0-1.2v-2.6c0-0.1,0-0.6,0-1.7
	c0-0.3,0-0.5,0-0.6c0-0.2,0-0.3,0.1-0.4c0,0,0-0.1,0.1-0.1c0,0,0.1-0.1,0.2-0.1c0.1,0,0.3,0,0.8,0V9.2C93.2,9.2,92.5,9.2,91.7,9.2
	L91.7,9.2L91.7,9.2z M101.8,18.1c0.3-0.7,0.8-2,1.5-3.7l0.9-2l0.5-1.1c0.4-0.9,0.6-1.4,0.7-1.4c0.1-0.1,0.3-0.1,0.7-0.1V9.2l-1.4,0
	l-1.6,0v0.6c0.2,0,0.4,0,0.7,0c0.1,0,0.2,0,0.2,0c0,0,0.1,0,0.1,0.1c0,0,0,0.1,0,0.2c0,0.1,0,0.1,0,0.2c0,0.2-0.2,0.5-0.3,1
	c-0.3,0.7-0.4,1.1-0.5,1.2l-1.4,3.5l-1.6-3.9c0,0,0-0.1,0-0.1c0,0-0.1-0.2-0.3-0.6c-0.3-0.7-0.4-1.1-0.4-1.2c0-0.1,0-0.1,0.1-0.2
	c0,0,0.1-0.1,0.2-0.1c0.2,0,0.4-0.1,0.8-0.1V9.2l-2.3,0c-0.2,0-0.8,0-1.9,0v0.6c0.4,0,0.7,0,0.8,0.1c0.1,0,0.2,0.2,0.4,0.6
	c0.2,0.3,0.6,1.3,1.3,3l0.9,2.2c0.3,0.8,0.7,1.6,1,2.5H101.8L101.8,18.1z M111,18c0.4,0,1.1,0,2.1,0l1,0c0.5,0,0.9,0,1.2,0l0.1-0.1
	c0-0.5,0-1.2,0.1-2.1H115c-0.1,0.6-0.2,0.9-0.2,1.2c0,0.1-0.1,0.1-0.1,0.1c-0.1,0.1-0.3,0.1-0.7,0.1c-0.4,0-0.8,0-1.3,0
	c-0.5,0-0.9,0-1.2,0c0-0.2,0-0.5,0-0.8v-2.7c0.3,0,0.6,0,1,0c0.5,0,0.8,0,1.1,0.1c0.1,0,0.2,0.1,0.3,0.2c0.1,0.1,0.1,0.4,0.1,0.9
	h0.5l0-1.4l0-1.4H114c0,0.4,0,0.6-0.1,0.8c0,0.1-0.1,0.1-0.1,0.1c0,0-0.2,0-0.4,0c-0.6,0-1,0-1,0c-0.3,0-0.6,0-0.9,0v-1.3
	c0-0.7,0-1.4,0.1-1.8c0.4,0,0.8,0,1.2,0c0.4,0,0.8,0,1.2,0.1c0.3,0,0.5,0.1,0.5,0.1c0,0,0.1,0.1,0.1,0.1c0,0.1,0,0.4,0.1,0.9h0.5
	c0-0.5,0.1-0.9,0.1-0.9l0.1-0.9l0-0.1c-0.1,0-0.2,0-0.2,0c-0.5,0-0.8,0-0.9,0l-1.3,0c-0.7,0-1.4,0-1.9,0c-0.3,0-0.5,0-0.8,0l-1.5,0
	v0.5c0.5,0,0.8,0.1,0.9,0.1c0,0,0.1,0.1,0.1,0.1c0,0.1,0.1,0.4,0.1,0.9c0,0.7,0,1.1,0,1.2v2.9c0,0.3,0,0.9-0.1,1.6
	c0,0.4,0,0.7-0.1,0.9c-0.2,0.1-0.4,0.2-0.6,0.4v0.3C110.2,18,110.9,18,111,18L111,18L111,18z M119.4,9.8c0,0,0.1,0.1,0.1,0.1
	c0,0.1,0.1,0.4,0.1,1l0,1.3v2.4l-0.1,1.9c0,0.3,0,0.6-0.1,0.7c0,0.1,0,0.1-0.1,0.2c0,0-0.1,0.1-0.1,0.1c-0.1,0-0.4,0.1-0.9,0.1v0.6
	c0.6,0,1.2,0,1.8,0c0.7,0,1.5,0,2.2,0v-0.6c-0.4,0-0.7,0-0.7,0c-0.1,0-0.1,0-0.2-0.1c0,0-0.1-0.1-0.1-0.1c0-0.1-0.1-0.2-0.1-0.5
	c0-0.1,0-0.6,0-1.5c0-0.7,0-1.4,0-2c0-0.4,0-1.2,0-2.4c0-0.5,0-0.9,0-1c0.2,0,0.4-0.1,0.6-0.1c0.5,0,0.8,0,1,0.1
	c0.3,0.1,0.5,0.3,0.7,0.5c0.2,0.3,0.3,0.6,0.3,1c0,0.4-0.1,0.7-0.3,1c-0.2,0.3-0.4,0.5-0.7,0.6c-0.3,0.1-0.6,0.2-1.1,0.2l-0.1,0.2
	c0.1,0.1,0.3,0.2,0.4,0.4c0.3,0.4,0.6,0.9,1,1.5l1.4,2.2c0.1,0.1,0.1,0.3,0.2,0.4c0.3,0,0.7,0,1,0c0.3,0,0.8,0,1.4,0v-0.6
	c-0.2,0-0.3,0-0.4-0.1c-0.1,0-0.1-0.1-0.2-0.2c-0.1-0.1-0.3-0.3-0.6-0.7c0,0-0.2-0.2-0.4-0.6l-1-1.5c0,0,0-0.1-0.1-0.1
	c0,0-0.1-0.2-0.2-0.4c-0.1-0.2-0.3-0.4-0.4-0.6c0.7-0.2,1.1-0.6,1.5-1c0.3-0.4,0.5-0.9,0.5-1.4c0-0.4-0.1-0.8-0.3-1.1
	c-0.2-0.3-0.5-0.5-0.8-0.6c-0.3-0.1-0.8-0.1-1.5-0.1c-0.3,0-0.8,0-1.3,0c-0.3,0-0.7,0-1.1,0c-0.5,0-0.9,0-1.2,0c-0.6,0-0.9,0-1,0
	v0.5C119,9.8,119.3,9.8,119.4,9.8L119.4,9.8L119.4,9.8z M135.8,10.5c0-0.3,0.1-0.5,0.1-0.8l-0.1-0.2c-0.3-0.2-0.7-0.3-1.1-0.3
	c-0.4-0.1-0.9-0.1-1.3-0.1c-0.4,0-0.9,0-1.3,0.1c-0.4,0.1-0.8,0.3-1.1,0.5c-0.3,0.2-0.6,0.5-0.8,0.9c-0.2,0.4-0.3,0.8-0.3,1.3
	c0,0.3,0.1,0.7,0.2,0.9c0.1,0.3,0.3,0.5,0.5,0.8c0.2,0.2,0.5,0.4,0.9,0.5c0.2,0.1,0.7,0.2,1.5,0.3c0.5,0.1,0.9,0.2,1.1,0.4
	c0.2,0.1,0.4,0.3,0.5,0.5s0.1,0.4,0.1,0.7c0,0.3-0.1,0.6-0.2,0.9s-0.4,0.4-0.7,0.6c-0.3,0.1-0.7,0.2-1.1,0.2c-0.5,0-0.9-0.1-1.3-0.3
	c-0.4-0.2-0.7-0.4-0.8-0.7c-0.1-0.5-0.1-0.8-0.1-1.1h-0.5c0,1-0.1,1.7-0.2,2.2c0.5,0.2,0.9,0.4,1.3,0.5c0.4,0.1,0.9,0.1,1.4,0.1
	c0.7,0,1.3-0.1,1.8-0.3c0.3-0.1,0.6-0.3,0.9-0.6c0.3-0.3,0.5-0.5,0.7-0.8c0.2-0.4,0.3-0.9,0.3-1.4c0-0.3,0-0.6-0.1-0.8
	c-0.1-0.2-0.2-0.5-0.3-0.6c-0.1-0.2-0.3-0.3-0.5-0.4c-0.2-0.1-0.5-0.2-0.8-0.3c-0.1,0-0.4-0.1-0.9-0.2c-0.4-0.1-0.8-0.1-1-0.2
	c-0.3-0.1-0.6-0.2-0.7-0.3c-0.2-0.1-0.3-0.2-0.4-0.4c-0.1-0.2-0.1-0.4-0.1-0.7c0-0.4,0.2-0.7,0.5-1c0.3-0.3,0.8-0.4,1.3-0.4
	c0.4,0,0.8,0.1,1.1,0.2c0.3,0.1,0.6,0.3,0.7,0.5c0,0.2,0.1,0.5,0.1,1h0.5C135.7,11.1,135.7,10.7,135.8,10.5L135.8,10.5z M141.4,9.2
	c-0.7,0-1.3,0-1.8,0v0.6c0.5,0,0.7,0,0.8,0.1c0.1,0,0.1,0,0.2,0.1c0,0,0,0.1,0.1,0.1c0,0.1,0.1,0.5,0.1,1c0,0.2,0,0.8,0,1.6v2.7
	c0,0.4,0,0.9-0.1,1.4c0,0.3,0,0.5,0,0.6c0,0,0,0.1-0.1,0.1c0,0-0.1,0.1-0.2,0.1c-0.1,0-0.3,0-0.8,0v0.6c0.5,0,1.1,0,1.8,0
	c0.8,0,1.5,0,2.2,0v-0.6c-0.4,0-0.7,0-0.8,0c-0.1,0-0.2,0-0.2-0.1c0,0-0.1-0.1-0.1-0.1c0-0.1-0.1-0.4-0.1-0.9l0-1.2v-2.6
	c0-0.1,0-0.6,0-1.7c0-0.3,0-0.5,0-0.6c0-0.2,0-0.3,0.1-0.4c0,0,0-0.1,0.1-0.1c0,0,0.1-0.1,0.2-0.1c0.1,0,0.3,0,0.8,0V9.2
	C142.9,9.2,142.2,9.2,141.4,9.2L141.4,9.2L141.4,9.2z M150.2,18c0.6,0,1.3,0,2.1,0.1v-0.5c-0.5,0-0.8-0.1-0.9-0.1
	c-0.1-0.1-0.2-0.1-0.2-0.2c0-0.2-0.1-0.7-0.1-1.6v-3.8c0-1,0-1.6,0-1.7h0.9c0.5,0,0.9,0,1.3,0.1c0.1,0,0.2,0,0.2,0
	c0,0,0.1,0.1,0.1,0.3c0,0.3,0.1,0.6,0.1,0.9h0.5c0-0.9,0-1.4,0-1.4c0-0.2,0-0.4,0.1-0.7l-0.1-0.1c-0.2,0-0.4,0-0.6,0
	c-0.4,0-1.1,0-2.1,0h-2.6c-1,0-1.7,0-2.1,0c-0.2,0-0.4,0-0.6,0l-0.1,0.1c0,0.2,0,0.4,0.1,0.6c0,0.1,0,0.6,0,1.5h0.5
	c0-0.4,0-0.7,0.1-1c0-0.1,0-0.2,0.1-0.2c0,0,0.1,0,0.2-0.1c0.3,0,0.8,0,1.2,0h0.9c0,0.1,0,0.7,0,1.7v3.8c0,0.9,0,1.5-0.1,1.6
	c0,0.1-0.1,0.2-0.2,0.3c-0.1,0.1-0.4,0.1-0.9,0.1v0.5C148.9,18,149.6,18,150.2,18L150.2,18L150.2,18z M160.6,11.6
	c-0.3-0.6-0.6-1.1-0.9-1.6c-0.2-0.3-0.4-0.5-0.5-0.6c-0.1-0.1-0.3-0.2-0.6-0.4c-0.2,0.1-0.5,0.1-0.7,0.2l-1.3,0.3V10
	c0.3,0,0.5,0,0.6,0c0.1,0,0.2,0.2,0.5,0.4c0.3,0.3,0.7,0.8,1,1.4c0.5,0.7,0.9,1.4,1.3,2.2c0.2,0.3,0.2,0.5,0.2,0.6v1.2
	c0,0.3,0,0.7,0,1.2c0,0.2,0,0.3-0.1,0.4c0,0-0.1,0.1-0.2,0.1c-0.1,0-0.4,0-0.8,0.1v0.6c0.7,0,1.3,0,1.9,0c0.7,0,1.4,0,2.2,0v-0.6
	c-0.5,0-0.8,0-0.8-0.1c-0.1,0-0.2-0.1-0.2-0.1c0-0.1-0.1-0.2-0.1-0.4c0-0.2,0-0.6,0-1.2v-1.1c0-0.2,0-0.4,0-0.5
	c0-0.1,0.1-0.3,0.2-0.5c0.1-0.3,0.5-0.9,1.1-1.8c0.6-0.9,1.1-1.7,1.7-2.4V9.2h-1c-0.1,0.1-0.2,0.4-0.4,0.8c-0.7,1.2-1.1,1.9-1.2,2.1
	l-0.8,1.3C161.4,13.2,161.1,12.6,160.6,11.6L160.6,11.6L160.6,11.6z"/>
<g>
	<polygon class="st1" points="38.9,37.4 38.9,28.7 46.9,28.7 46.9,23 38.9,23 38.9,14.9 47.7,14.9 47.7,18 53.5,18 53.5,9.2 
		30.3,9.2 30.3,14.9 32.5,14.9 32.5,37.4 30.3,37.4 30.3,43.1 41,43.1 41,37.4 38.9,37.4 	"/>
	<path class="st1" d="M27.3,30.3V14.9h2.1V9.2H18.7v5.7h2.1v13.5c0,5.7-0.7,8.4-4.7,8.4s-4.7-2.7-4.7-8.4V14.9h2.1V9.2H2.7v5.7h2.1
		v15.4c0,3.4,0,6.1,1.6,8.6c1.8,2.8,5,4.6,9.7,4.6C24.4,43.5,27.3,39.2,27.3,30.3L27.3,30.3z"/>
</g>
<polygon class="st0" points="58.8,9.2 58.8,43.1 60.3,43.1 60.3,9.2 58.8,9.2 "/>
<path class="st1" d="M171.8,18c0.1,0.4,0.4,0.6,0.7,0.8c0.3,0.2,0.8,0.3,1.4,0.3c0.5,0,0.9-0.1,1.3-0.2c0.4-0.1,0.8-0.4,1.2-0.7
	c0.4-0.3,0.7-0.5,0.9-0.8c0.3-0.3,0.5-0.8,0.7-1.5c0.2-0.6,0.3-1.3,0.3-1.9c0-0.3,0-0.6-0.1-0.9c-0.1-0.3-0.2-0.5-0.4-0.7
	c-0.2-0.2-0.4-0.4-0.8-0.5c-0.3-0.1-0.7-0.2-1.2-0.2c-0.5,0-1,0.1-1.4,0.3s-0.9,0.4-1.2,0.7c-0.4,0.3-0.6,0.5-0.8,0.7
	c-0.2,0.3-0.5,0.8-0.7,1.4c-0.2,0.7-0.3,1.3-0.3,1.9C171.6,17.2,171.7,17.6,171.8,18L171.8,18z M173.7,14.5c0.2-0.8,0.5-1.4,0.7-1.7
	c0.3-0.3,0.6-0.4,1-0.4c0.4,0,0.7,0.1,0.9,0.4c0.2,0.3,0.4,0.7,0.4,1.3c0,0.7-0.1,1.4-0.3,2.2c-0.1,0.5-0.3,0.9-0.5,1.2
	c-0.2,0.3-0.4,0.5-0.6,0.7c-0.2,0.1-0.4,0.2-0.7,0.2c-0.4,0-0.7-0.1-1-0.4c-0.2-0.3-0.3-0.7-0.3-1.3
	C173.3,16.1,173.4,15.3,173.7,14.5L173.7,14.5z M180.4,12.8c0.3,0,0.7,0,1,0l-1.1,5.5c-0.3,1.5-0.5,2.5-0.7,3
	c-0.1,0.2-0.2,0.4-0.3,0.5c-0.1,0.1-0.3,0.1-0.4,0.1c-0.1,0-0.3-0.1-0.4-0.2c-0.1-0.1-0.2-0.3-0.3-0.5l-0.2,0
	c-0.1,0.3-0.1,0.5-0.2,0.7c-0.1,0.2-0.2,0.5-0.3,0.9c0.2,0.1,0.4,0.1,0.6,0.1c0.2,0,0.5-0.1,0.7-0.2c0.5-0.2,0.9-0.6,1.4-1.2
	c0.5-0.5,0.8-1.2,1.1-1.9c0.3-0.7,0.6-1.8,1-3.4l0.8-3.5c0.2,0,0.4,0,0.7,0c0.5,0,0.9,0,1.1,0c0-0.2,0.1-0.5,0.2-0.8l-0.1-0.1
	c-0.2,0-0.4,0.1-0.7,0.1c-0.5,0-0.9,0-1,0h-0.2c0.1-0.6,0.3-1.3,0.4-1.9c0.1-0.2,0.1-0.4,0.2-0.5c0.1-0.1,0.2-0.2,0.3-0.3
	c0.1-0.1,0.2-0.1,0.4-0.1c0.2,0,0.3,0.1,0.5,0.2c0.2,0.1,0.4,0.3,0.6,0.7l0.2,0c0.1-0.6,0.2-1.2,0.4-1.9C186,8,185.8,8,185.6,8
	c-0.3,0-0.5,0-0.7,0.1c-0.2,0.1-0.5,0.3-1,0.7c-0.5,0.4-1,0.8-1.4,1.2c-0.3,0.3-0.5,0.5-0.6,0.8c-0.1,0.2-0.2,0.4-0.3,0.9
	c0,0.2-0.1,0.3-0.1,0.4c-0.2,0.1-0.5,0.2-0.8,0.3c-0.3,0.1-0.6,0.2-0.7,0.2l-0.1,0.4C180.1,12.8,180.2,12.8,180.4,12.8L180.4,12.8
	L180.4,12.8z"/>
<path class="st1" d="M78.8,29.3h-1.3c0,0.9-0.1,1.5-0.2,1.7c-0.1,0.2-0.2,0.3-0.3,0.3c-0.3,0.1-1.2,0.2-2.5,0.2
	c-0.5,0-1.3,0-2.6-0.1v-2.1c0-2.6,0.1-4.4,0.2-5.4c0.3,0,0.8,0,1.6-0.1c0.8,0,1.3,0,1.4,0c0.9,0,1.7,0.1,2.3,0.2
	c0.7,0.1,1.1,0.2,1.3,0.4c0.1,0,0.1,0.1,0.1,0.1c0,0.1,0.1,0.4,0.1,0.8c0.1,0.8,0.1,1.4,0.1,1.6h1.2c0-0.7,0.1-1.4,0.1-2.3
	c0.1-0.9,0.2-1.6,0.3-2.2l-0.1-0.2c-0.9-0.1-1.9-0.2-2.9-0.2l-7.3,0.1L65,22v1.3c1,0.1,1.6,0.1,1.8,0.2c0.2,0.1,0.4,0.1,0.4,0.2
	c0.1,0.1,0.1,0.1,0.1,0.3c0.1,0.3,0.1,0.9,0.2,1.7c0.1,2.7,0.1,4.1,0.1,4.2V36c0,0.5,0,1.4-0.1,2.6c-0.1,1.2-0.1,2-0.1,2.2
	c-0.1,0.4-0.1,0.7-0.2,0.8c-0.1,0.1-0.1,0.1-0.2,0.2c-0.2,0.1-0.9,0.1-2,0.1v1.3c1.9-0.1,3.2-0.1,4.1-0.1l5.9,0.1V42
	c-1.4-0.1-2.2-0.2-2.4-0.2c-0.2-0.1-0.3-0.2-0.4-0.3c-0.1-0.2-0.2-0.7-0.2-1.7c-0.1-1-0.1-2.6-0.1-5v-1.7c0.6,0,1,0,1.2,0
	c1.6,0,2.8,0.1,3.5,0.2c0.3,0.1,0.5,0.2,0.5,0.3c0.1,0.3,0.2,1,0.3,2.3h1.3C78.8,33.2,78.8,31,78.8,29.3L78.8,29.3L78.8,29.3z
	 M87.2,43.1c0.7,0,1.8,0,3.5,0.1c2.2,0.1,3.4,0.1,3.6,0.1c1.3,0,2.2,0,2.9-0.1c0.3,0,0.6-0.1,0.9-0.2c0-0.2,0.1-0.8,0.1-1.7l0.4-3.1
	c0-0.1,0-0.2,0-0.5h-1.3c-0.2,1-0.4,1.9-0.6,2.6c-0.1,0.3-0.2,0.5-0.3,0.6c-0.1,0.1-0.3,0.1-0.7,0.2c-1.1,0.2-2.5,0.3-4,0.3
	c-0.5,0-1.5,0-2.8-0.1c0-0.3,0-1.2,0-2.6c0-1.4,0-2.8,0-4.3c0-2.7,0-4.2,0-4.4c0-1.7,0-3.1,0.1-4.2c0-1.1,0.1-1.7,0.1-1.9
	c0-0.1,0.1-0.2,0.2-0.3c0.3-0.1,0.9-0.2,2.1-0.3V22c-1.6,0.1-3.4,0.1-5.2,0.1c-1.6,0-3.1,0-4.4-0.1v1.3c1.3,0.1,2.1,0.2,2.3,0.3
	c0.1,0.1,0.2,0.2,0.2,0.3c0.1,0.3,0.2,1.4,0.2,3.3c0,0.7,0,2.7,0,5.9c0,2.2,0,4-0.1,5.6c0,1.6-0.1,2.5-0.1,2.7c0,0.1,0,0.1-0.1,0.2
	c-0.1,0.1-0.2,0.2-0.4,0.3c-0.5,0.3-0.8,0.5-1.1,0.6v0.8C84.7,43.1,86.2,43.1,87.2,43.1L87.2,43.1L87.2,43.1z M100.3,38.9
	c0.9,1.6,2.2,2.8,3.8,3.6c1.6,0.8,3.6,1.2,5.8,1.2c2.1,0,4-0.3,5.6-1c1.2-0.5,2.3-1.2,3.2-2.2c0.9-0.9,1.6-2,2.1-3.2
	c0.7-1.6,1-3.4,1-5.3c0-1.1-0.1-2.1-0.3-3.1c-0.2-0.9-0.6-1.8-1-2.6c-0.4-0.8-1.1-1.5-1.9-2.3c-0.9-0.7-1.8-1.3-2.9-1.7
	c-1.5-0.5-3.2-0.8-5-0.8c-1.8,0-3.5,0.3-5.1,0.8c-1.2,0.4-2.3,1.1-3.4,2.1c-1,1-1.8,2.1-2.4,3.5c-0.6,1.4-0.8,3-0.8,4.8
	C98.9,35.3,99.3,37.3,100.3,38.9L100.3,38.9z M104.2,27.5c0.5-1.4,1.2-2.4,2.3-3.1c1-0.7,2.3-1,3.8-1c1.3,0,2.3,0.2,3.1,0.7
	c0.8,0.4,1.5,1.1,2,1.9c0.6,0.8,1,1.8,1.3,3c0.3,1.2,0.5,2.5,0.5,3.9c0,2.1-0.3,3.8-0.9,5.3c-0.6,1.4-1.4,2.5-2.4,3.1
	c-1,0.6-2.1,0.9-3.4,0.9c-1.4,0-2.6-0.3-3.6-1c-1-0.6-1.8-1.7-2.5-3.3c-0.6-1.5-1-3.5-1-5.8C103.5,30.3,103.8,28.8,104.2,27.5
	L104.2,27.5z M124,23.6c0.1,0.1,0.2,0.1,0.2,0.3c0.1,0.3,0.2,1,0.2,2.3l0.1,3.2v5.6l-0.1,4.4c0,0.8-0.1,1.4-0.2,1.8
	c0,0.2-0.1,0.4-0.1,0.4c-0.1,0.1-0.1,0.1-0.3,0.2c-0.2,0.1-0.9,0.1-2,0.2v1.3c1.3-0.1,2.8-0.1,4.4-0.1c1.8,0,3.5,0,5.2,0.1v-1.3
	c-1,0-1.6,0-1.8-0.1c-0.2,0-0.3-0.1-0.4-0.2c-0.1-0.1-0.2-0.1-0.2-0.2c-0.1-0.2-0.1-0.5-0.2-1.1c0-0.3-0.1-1.5-0.1-3.5
	c0-1.7,0-3.3,0-4.8c0-1,0-2.9,0.1-5.7c0-1.3,0.1-2.1,0.1-2.5c0.5-0.1,1-0.1,1.4-0.1c1.1,0,1.8,0.1,2.3,0.2c0.7,0.2,1.2,0.7,1.7,1.3
	c0.4,0.6,0.7,1.4,0.7,2.3c0,0.9-0.2,1.7-0.6,2.5c-0.4,0.7-0.9,1.3-1.6,1.5c-0.6,0.3-1.5,0.4-2.7,0.4l-0.2,0.5c0.3,0.2,0.6,0.6,0.9,1
	c0.6,0.9,1.4,2.1,2.4,3.6l3.2,5.3c0.2,0.4,0.3,0.6,0.4,0.9c0.8,0,1.6-0.1,2.4-0.1c0.7,0,1.8,0,3.4,0.1v-1.3c-0.5,0-0.8,0-1-0.1
	c-0.2-0.1-0.3-0.2-0.5-0.4c-0.2-0.2-0.6-0.8-1.4-1.8c-0.1-0.1-0.4-0.6-1-1.5l-2.3-3.5c-0.1-0.1-0.1-0.2-0.2-0.3
	c-0.1-0.1-0.2-0.4-0.6-0.9c-0.3-0.5-0.6-0.9-0.9-1.4c1.6-0.6,2.7-1.4,3.5-2.4c0.8-1,1.1-2.1,1.1-3.3c0-1-0.3-1.9-0.8-2.6
	c-0.6-0.7-1.2-1.2-2-1.4c-0.8-0.2-2-0.3-3.6-0.3c-0.8,0-1.9,0-3.1,0.1c-0.8,0-1.7,0.1-2.7,0.1c-1.2,0-2.2,0-2.9,0
	c-1.4,0-2.2-0.1-2.4-0.1v1.2C123.1,23.4,123.8,23.5,124,23.6L124,23.6L124,23.6z M148.2,22.1c-1.6,0-3.1,0-4.4-0.1v1.3
	c1.1,0,1.7,0.1,1.9,0.1c0.2,0,0.3,0.1,0.4,0.2c0.1,0.1,0.1,0.2,0.1,0.3c0.1,0.3,0.1,1.1,0.2,2.4c0,0.6,0,1.9,0,3.9v6.3
	c0,1,0,2.2-0.1,3.4c-0.1,0.8-0.1,1.3-0.1,1.4c0,0.1-0.1,0.2-0.1,0.2c-0.1,0.1-0.2,0.1-0.4,0.2c-0.2,0-0.8,0.1-1.8,0.1v1.3
	c1.3-0.1,2.7-0.1,4.4-0.1c1.9,0,3.6,0,5.3,0.1v-1.3c-1,0-1.6-0.1-1.8-0.1c-0.2,0-0.4-0.1-0.5-0.2c-0.1-0.1-0.2-0.2-0.2-0.3
	c-0.1-0.3-0.2-1-0.2-2l0-2.8v-6.1c0-0.2,0-1.5,0.1-4c0-0.7,0-1.2,0-1.5c0-0.5,0.1-0.8,0.2-1c0-0.1,0.1-0.2,0.2-0.2
	c0.1-0.1,0.2-0.1,0.4-0.2c0.2,0,0.8-0.1,1.8-0.1V22C151.8,22.1,150,22.1,148.2,22.1L148.2,22.1L148.2,22.1z M159.9,43.1l4.5,0.1
	c2,0,3.8-0.2,5.2-0.7c1.4-0.5,2.8-1.2,4-2.2c1.2-1,2.2-2.3,2.9-3.8c0.7-1.5,1.1-3.2,1.1-5.2c0-1.5-0.2-2.9-0.7-4.2
	c-0.3-0.8-0.7-1.5-1.2-2.1c-0.5-0.7-1.2-1.2-2-1.7c-0.8-0.5-1.7-0.8-2.8-1c-1.1-0.2-2.5-0.3-4.3-0.3c-0.8,0-1.8,0-3.1,0.1
	c-1.8,0.1-3,0.1-3.6,0.1l-5.5-0.1v1.2c1.1,0.1,1.7,0.2,1.9,0.3s0.3,0.1,0.4,0.2c0.1,0.1,0.1,0.1,0.1,0.2c0.1,0.4,0.2,1.3,0.2,2.7
	c0.1,2.6,0.1,4.5,0.1,5.9V35c0,3-0.1,5.2-0.2,6.6c-0.3,0.2-0.7,0.5-1,0.7c-0.2,0.1-0.3,0.2-0.4,0.2v0.7L159.9,43.1L159.9,43.1z
	 M161.2,35.4v-3.5c0-4,0.1-6.7,0.2-8.1c0.9-0.1,1.8-0.2,2.6-0.2c2.1,0,3.6,0.2,4.6,0.5c1,0.4,1.9,0.9,2.5,1.8
	c0.7,0.8,1.1,1.7,1.4,2.8c0.3,1.1,0.4,2.2,0.4,3.3c0,1.3-0.1,2.4-0.4,3.5c-0.3,1.1-0.7,2-1.2,2.8c-0.5,0.8-1.1,1.4-1.7,1.8
	c-0.6,0.4-1.2,0.7-2,0.9c-1,0.3-2.2,0.4-3.6,0.4c-0.9,0-1.8-0.1-2.7-0.2C161.3,40.4,161.2,38.4,161.2,35.4L161.2,35.4L161.2,35.4z
	 M178.4,43.1l3.5,0.1V42c-1.2,0-1.9-0.1-2.2-0.3c-0.2-0.1-0.2-0.3-0.2-0.5c0-0.3,0.3-1.2,0.8-2.6l0.7-1.8h7.8l1.3,3.3
	c0.2,0.6,0.3,1,0.3,1.2c0,0.2-0.1,0.3-0.2,0.4c-0.2,0.1-0.8,0.2-2.1,0.2v1.3l5.3-0.1l4.2,0.1V42c-0.3,0-0.5-0.1-0.7-0.1
	c-0.5,0-0.8-0.1-0.9-0.1c-0.1,0-0.2-0.1-0.3-0.2c-0.1-0.1-0.2-0.2-0.3-0.4l-0.6-1.4l-0.9-2.1l-6.8-15.8h-2.2l-1.3,3.4l-3.9,9.8
	c-0.7,1.8-1.3,3.1-1.5,3.7c-0.6,1.3-0.9,2.1-1,2.3c-0.1,0.2-0.2,0.4-0.3,0.5c-0.1,0.1-0.2,0.2-0.4,0.2c-0.2,0-0.6,0.1-1.5,0.2v1.3
	L178.4,43.1L178.4,43.1z M184.7,27.2l3.2,7.8c-0.9,0-2,0-3.1,0c-1.2,0-2.3,0-3.2,0L184.7,27.2L184.7,27.2z"/>
<path class="st1" d="M65.8,9.8c0.1,0.1,0.1,0.1,0.2,0.2c0,0.1,0.1,0.2,0.1,0.4c0,0.5,0,1,0,1.6v1.6l0,1.2c0,0.7,0,1.1,0,1.2
	c0,0.2,0.1,0.5,0.2,0.8c0.1,0.3,0.3,0.5,0.6,0.7c0.3,0.2,0.6,0.4,1,0.5c0.6,0.2,1.2,0.3,1.8,0.3c0.6,0,1-0.1,1.5-0.2
	c0.4-0.1,0.8-0.3,1.1-0.5c0.3-0.2,0.5-0.5,0.7-0.8c0.2-0.3,0.3-0.6,0.3-1c0.1-0.4,0.1-0.8,0.1-1.2v-1.5c0-0.4,0-1,0-1.8
	c0-0.8,0.1-1.2,0.1-1.3c0-0.1,0.1-0.2,0.1-0.2c0.1-0.1,0.3-0.1,0.7-0.1V9.2l-1.4,0c-0.1,0-0.1,0-0.2,0c-0.1,0-0.6,0-1.4,0v0.5
	c0.5,0,0.8,0.1,0.9,0.1c0.1,0,0.1,0.1,0.1,0.2c0,0.1,0.1,0.4,0.1,1c0,0.2,0,0.9,0,2v1.3c0,0.9-0.1,1.5-0.2,1.8
	c-0.1,0.3-0.4,0.6-0.7,0.8c-0.3,0.2-0.8,0.3-1.4,0.3c-0.5,0-0.9-0.1-1.3-0.2c-0.3-0.2-0.6-0.3-0.7-0.6c-0.2-0.2-0.3-0.6-0.3-1
	c0-0.2,0-0.7,0-1.4l0-0.7v-1.5c0-0.9,0-1.5,0.1-1.7c0-0.1,0.1-0.2,0.1-0.2c0.1-0.1,0.4-0.1,0.9-0.1V9.2l-0.2,0l-0.9,0l-0.9,0l-2.1,0
	v0.5L65.8,9.8L65.8,9.8z M77.1,18.1c0.7,0,1.3,0,1.7,0c0.1,0,0.6,0,1.4,0v-0.5c-0.1,0-0.1,0-0.1,0c-0.1,0-0.3,0-0.6-0.1
	c-0.1,0-0.2,0-0.2-0.1c0,0-0.1-0.1-0.1-0.1c0-0.1-0.1-0.4-0.1-0.9c0-0.7,0-1.4,0-2.1v-3.2c2.5,3.1,4.4,5.4,5.8,6.9
	c0.4,0.1,0.7,0.1,1.1,0.2l0.1-0.1c-0.1-0.6-0.1-2.3-0.1-5.1c0-0.4,0-0.9,0-1.7c0-0.8,0.1-1.2,0.1-1.5c0,0,0-0.1,0.1-0.1
	c0.1-0.1,0.4-0.1,0.9-0.1V9.2c-0.7,0-1.2,0-1.6,0c-0.4,0-0.9,0-1.4,0v0.5c0.6,0,0.9,0.1,1,0.1c0.1,0,0.1,0.1,0.1,0.3
	c0.1,0.4,0.1,1.7,0.1,4v1.5c-0.6-0.6-1.3-1.4-2.2-2.5c-1.2-1.5-2.3-2.8-3.2-3.9l-0.6,0l-0.9,0c-0.3,0-0.6,0-1.2,0v0.5
	c0.4,0,0.7,0.1,0.8,0.1c0.1,0,0.2,0.1,0.2,0.1c0,0,0.1,0.1,0.1,0.2c0,0.1,0,0.3,0,0.6l0,1.8v2c0,0.6,0,1,0,1.4c0,0.6-0.1,1-0.1,1.2
	c0,0.1,0,0.2-0.1,0.2c0,0-0.1,0.1-0.1,0.1c-0.1,0-0.4,0-0.9,0.1V18.1L77.1,18.1z M91.7,9.2c-0.7,0-1.3,0-1.8,0v0.6
	c0.5,0,0.7,0,0.8,0.1c0.1,0,0.1,0,0.2,0.1c0,0,0,0.1,0.1,0.1c0,0.1,0.1,0.5,0.1,1c0,0.2,0,0.8,0,1.6v2.7c0,0.4,0,0.9-0.1,1.4
	c0,0.3,0,0.5,0,0.6c0,0,0,0.1-0.1,0.1c0,0-0.1,0.1-0.2,0.1c-0.1,0-0.3,0-0.8,0v0.6c0.5,0,1.1,0,1.8,0c0.8,0,1.5,0,2.2,0v-0.6
	c-0.4,0-0.7,0-0.8,0c-0.1,0-0.2,0-0.2-0.1c0,0-0.1-0.1-0.1-0.1c0-0.1-0.1-0.4-0.1-0.9l0-1.2v-2.6c0-0.1,0-0.6,0-1.7
	c0-0.3,0-0.5,0-0.6c0-0.2,0-0.3,0.1-0.4c0,0,0-0.1,0.1-0.1c0,0,0.1-0.1,0.2-0.1c0.1,0,0.3,0,0.8,0V9.2C93.2,9.2,92.5,9.2,91.7,9.2
	L91.7,9.2L91.7,9.2z M101.8,18.1c0.3-0.7,0.8-2,1.5-3.7l0.9-2l0.5-1.1c0.4-0.9,0.6-1.4,0.7-1.4c0.1-0.1,0.3-0.1,0.7-0.1V9.2l-1.4,0
	l-1.6,0v0.6c0.2,0,0.4,0,0.7,0c0.1,0,0.2,0,0.2,0c0,0,0.1,0,0.1,0.1c0,0,0,0.1,0,0.2c0,0.1,0,0.1,0,0.2c0,0.2-0.2,0.5-0.3,1
	c-0.3,0.7-0.4,1.1-0.5,1.2l-1.4,3.5l-1.6-3.9c0,0,0-0.1,0-0.1c0,0-0.1-0.2-0.3-0.6c-0.3-0.7-0.4-1.1-0.4-1.2c0-0.1,0-0.1,0.1-0.2
	c0,0,0.1-0.1,0.2-0.1c0.2,0,0.4-0.1,0.8-0.1V9.2l-2.3,0c-0.2,0-0.8,0-1.9,0v0.6c0.4,0,0.7,0,0.8,0.1c0.1,0,0.2,0.2,0.4,0.6
	c0.2,0.3,0.6,1.3,1.3,3l0.9,2.2c0.3,0.8,0.7,1.6,1,2.5H101.8L101.8,18.1z M111,18c0.4,0,1.1,0,2.1,0l1,0c0.5,0,0.9,0,1.2,0l0.1-0.1
	c0-0.5,0-1.2,0.1-2.1H115c-0.1,0.6-0.2,0.9-0.2,1.2c0,0.1-0.1,0.1-0.1,0.1c-0.1,0.1-0.3,0.1-0.7,0.1c-0.4,0-0.8,0-1.3,0
	c-0.5,0-0.9,0-1.2,0c0-0.2,0-0.5,0-0.8v-2.7c0.3,0,0.6,0,1,0c0.5,0,0.8,0,1.1,0.1c0.1,0,0.2,0.1,0.3,0.2c0.1,0.1,0.1,0.4,0.1,0.9
	h0.5l0-1.4l0-1.4H114c0,0.4,0,0.6-0.1,0.8c0,0.1-0.1,0.1-0.1,0.1c0,0-0.2,0-0.4,0c-0.6,0-1,0-1,0c-0.3,0-0.6,0-0.9,0v-1.3
	c0-0.7,0-1.4,0.1-1.8c0.4,0,0.8,0,1.2,0c0.4,0,0.8,0,1.2,0.1c0.3,0,0.5,0.1,0.5,0.1c0,0,0.1,0.1,0.1,0.1c0,0.1,0,0.4,0.1,0.9h0.5
	c0-0.5,0.1-0.9,0.1-0.9l0.1-0.9l0-0.1c-0.1,0-0.2,0-0.2,0c-0.5,0-0.8,0-0.9,0l-1.3,0c-0.7,0-1.4,0-1.9,0c-0.3,0-0.5,0-0.8,0l-1.5,0
	v0.5c0.5,0,0.8,0.1,0.9,0.1c0,0,0.1,0.1,0.1,0.1c0,0.1,0.1,0.4,0.1,0.9c0,0.7,0,1.1,0,1.2v2.9c0,0.3,0,0.9-0.1,1.6
	c0,0.4,0,0.7-0.1,0.9c-0.2,0.1-0.4,0.2-0.6,0.4v0.3C110.2,18,110.9,18,111,18L111,18L111,18z M119.4,9.8c0,0,0.1,0.1,0.1,0.1
	c0,0.1,0.1,0.4,0.1,1l0,1.3v2.4l-0.1,1.9c0,0.3,0,0.6-0.1,0.7c0,0.1,0,0.1-0.1,0.2c0,0-0.1,0.1-0.1,0.1c-0.1,0-0.4,0.1-0.9,0.1v0.6
	c0.6,0,1.2,0,1.8,0c0.7,0,1.5,0,2.2,0v-0.6c-0.4,0-0.7,0-0.7,0c-0.1,0-0.1,0-0.2-0.1c0,0-0.1-0.1-0.1-0.1c0-0.1-0.1-0.2-0.1-0.5
	c0-0.1,0-0.6,0-1.5c0-0.7,0-1.4,0-2c0-0.4,0-1.2,0-2.4c0-0.5,0-0.9,0-1c0.2,0,0.4-0.1,0.6-0.1c0.5,0,0.8,0,1,0.1
	c0.3,0.1,0.5,0.3,0.7,0.5c0.2,0.3,0.3,0.6,0.3,1c0,0.4-0.1,0.7-0.3,1c-0.2,0.3-0.4,0.5-0.7,0.6c-0.3,0.1-0.6,0.2-1.1,0.2l-0.1,0.2
	c0.1,0.1,0.3,0.2,0.4,0.4c0.3,0.4,0.6,0.9,1,1.5l1.4,2.2c0.1,0.1,0.1,0.3,0.2,0.4c0.3,0,0.7,0,1,0c0.3,0,0.8,0,1.4,0v-0.6
	c-0.2,0-0.3,0-0.4-0.1c-0.1,0-0.1-0.1-0.2-0.2c-0.1-0.1-0.3-0.3-0.6-0.7c0,0-0.2-0.2-0.4-0.6l-1-1.5c0,0,0-0.1-0.1-0.1
	c0,0-0.1-0.2-0.2-0.4c-0.1-0.2-0.3-0.4-0.4-0.6c0.7-0.2,1.1-0.6,1.5-1c0.3-0.4,0.5-0.9,0.5-1.4c0-0.4-0.1-0.8-0.3-1.1
	c-0.2-0.3-0.5-0.5-0.8-0.6c-0.3-0.1-0.8-0.1-1.5-0.1c-0.3,0-0.8,0-1.3,0c-0.3,0-0.7,0-1.1,0c-0.5,0-0.9,0-1.2,0c-0.6,0-0.9,0-1,0
	v0.5C119,9.8,119.3,9.8,119.4,9.8L119.4,9.8L119.4,9.8z M135.8,10.5c0-0.3,0.1-0.5,0.1-0.8l-0.1-0.2c-0.3-0.2-0.7-0.3-1.1-0.3
	c-0.4-0.1-0.9-0.1-1.3-0.1c-0.4,0-0.9,0-1.3,0.1c-0.4,0.1-0.8,0.3-1.1,0.5c-0.3,0.2-0.6,0.5-0.8,0.9c-0.2,0.4-0.3,0.8-0.3,1.3
	c0,0.3,0.1,0.7,0.2,0.9c0.1,0.3,0.3,0.5,0.5,0.8c0.2,0.2,0.5,0.4,0.9,0.5c0.2,0.1,0.7,0.2,1.5,0.3c0.5,0.1,0.9,0.2,1.1,0.4
	c0.2,0.1,0.4,0.3,0.5,0.5s0.1,0.4,0.1,0.7c0,0.3-0.1,0.6-0.2,0.9s-0.4,0.4-0.7,0.6c-0.3,0.1-0.7,0.2-1.1,0.2c-0.5,0-0.9-0.1-1.3-0.3
	c-0.4-0.2-0.7-0.4-0.8-0.7c-0.1-0.5-0.1-0.8-0.1-1.1h-0.5c0,1-0.1,1.7-0.2,2.2c0.5,0.2,0.9,0.4,1.3,0.5c0.4,0.1,0.9,0.1,1.4,0.1
	c0.7,0,1.3-0.1,1.8-0.3c0.3-0.1,0.6-0.3,0.9-0.6c0.3-0.3,0.5-0.5,0.7-0.8c0.2-0.4,0.3-0.9,0.3-1.4c0-0.3,0-0.6-0.1-0.8
	c-0.1-0.2-0.2-0.5-0.3-0.6c-0.1-0.2-0.3-0.3-0.5-0.4c-0.2-0.1-0.5-0.2-0.8-0.3c-0.1,0-0.4-0.1-0.9-0.2c-0.4-0.1-0.8-0.1-1-0.2
	c-0.3-0.1-0.6-0.2-0.7-0.3c-0.2-0.1-0.3-0.2-0.4-0.4c-0.1-0.2-0.1-0.4-0.1-0.7c0-0.4,0.2-0.7,0.5-1c0.3-0.3,0.8-0.4,1.3-0.4
	c0.4,0,0.8,0.1,1.1,0.2c0.3,0.1,0.6,0.3,0.7,0.5c0,0.2,0.1,0.5,0.1,1h0.5C135.7,11.1,135.7,10.7,135.8,10.5L135.8,10.5z M141.4,9.2
	c-0.7,0-1.3,0-1.8,0v0.6c0.5,0,0.7,0,0.8,0.1c0.1,0,0.1,0,0.2,0.1c0,0,0,0.1,0.1,0.1c0,0.1,0.1,0.5,0.1,1c0,0.2,0,0.8,0,1.6v2.7
	c0,0.4,0,0.9-0.1,1.4c0,0.3,0,0.5,0,0.6c0,0,0,0.1-0.1,0.1c0,0-0.1,0.1-0.2,0.1c-0.1,0-0.3,0-0.8,0v0.6c0.5,0,1.1,0,1.8,0
	c0.8,0,1.5,0,2.2,0v-0.6c-0.4,0-0.7,0-0.8,0c-0.1,0-0.2,0-0.2-0.1c0,0-0.1-0.1-0.1-0.1c0-0.1-0.1-0.4-0.1-0.9l0-1.2v-2.6
	c0-0.1,0-0.6,0-1.7c0-0.3,0-0.5,0-0.6c0-0.2,0-0.3,0.1-0.4c0,0,0-0.1,0.1-0.1c0,0,0.1-0.1,0.2-0.1c0.1,0,0.3,0,0.8,0V9.2
	C142.9,9.2,142.2,9.2,141.4,9.2L141.4,9.2L141.4,9.2z M150.2,18c0.6,0,1.3,0,2.1,0.1v-0.5c-0.5,0-0.8-0.1-0.9-0.1
	c-0.1-0.1-0.2-0.1-0.2-0.2c0-0.2-0.1-0.7-0.1-1.6v-3.8c0-1,0-1.6,0-1.7h0.9c0.5,0,0.9,0,1.3,0.1c0.1,0,0.2,0,0.2,0
	c0,0,0.1,0.1,0.1,0.3c0,0.3,0.1,0.6,0.1,0.9h0.5c0-0.9,0-1.4,0-1.4c0-0.2,0-0.4,0.1-0.7l-0.1-0.1c-0.2,0-0.4,0-0.6,0
	c-0.4,0-1.1,0-2.1,0h-2.6c-1,0-1.7,0-2.1,0c-0.2,0-0.4,0-0.6,0l-0.1,0.1c0,0.2,0,0.4,0.1,0.6c0,0.1,0,0.6,0,1.5h0.5
	c0-0.4,0-0.7,0.1-1c0-0.1,0-0.2,0.1-0.2c0,0,0.1,0,0.2-0.1c0.3,0,0.8,0,1.2,0h0.9c0,0.1,0,0.7,0,1.7v3.8c0,0.9,0,1.5-0.1,1.6
	c0,0.1-0.1,0.2-0.2,0.3c-0.1,0.1-0.4,0.1-0.9,0.1v0.5C148.9,18,149.6,18,150.2,18L150.2,18L150.2,18z M160.6,11.6
	c-0.3-0.6-0.6-1.1-0.9-1.6c-0.2-0.3-0.4-0.5-0.5-0.6c-0.1-0.1-0.3-0.2-0.6-0.4c-0.2,0.1-0.5,0.1-0.7,0.2l-1.3,0.3V10
	c0.3,0,0.5,0,0.6,0c0.1,0,0.2,0.2,0.5,0.4c0.3,0.3,0.7,0.8,1,1.4c0.5,0.7,0.9,1.4,1.3,2.2c0.2,0.3,0.2,0.5,0.2,0.6v1.2
	c0,0.3,0,0.7,0,1.2c0,0.2,0,0.3-0.1,0.4c0,0-0.1,0.1-0.2,0.1c-0.1,0-0.4,0-0.8,0.1v0.6c0.7,0,1.3,0,1.9,0c0.7,0,1.4,0,2.2,0v-0.6
	c-0.5,0-0.8,0-0.8-0.1c-0.1,0-0.2-0.1-0.2-0.1c0-0.1-0.1-0.2-0.1-0.4c0-0.2,0-0.6,0-1.2v-1.1c0-0.2,0-0.4,0-0.5
	c0-0.1,0.1-0.3,0.2-0.5c0.1-0.3,0.5-0.9,1.1-1.8c0.6-0.9,1.1-1.7,1.7-2.4V9.2h-1c-0.1,0.1-0.2,0.4-0.4,0.8c-0.7,1.2-1.1,1.9-1.2,2.1
	l-0.8,1.3C161.4,13.2,161.1,12.6,160.6,11.6L160.6,11.6L160.6,11.6z"/>
<g>
	<polygon class="st1" points="38.9,37.4 38.9,28.7 46.9,28.7 46.9,23 38.9,23 38.9,14.9 47.7,14.9 47.7,18 53.5,18 53.5,9.2 
		30.3,9.2 30.3,14.9 32.5,14.9 32.5,37.4 30.3,37.4 30.3,43.1 41,43.1 41,37.4 38.9,37.4 	"/>
	<path class="st1" d="M27.3,30.3V14.9h2.1V9.2H18.7v5.7h2.1v13.5c0,5.7-0.7,8.4-4.7,8.4s-4.7-2.7-4.7-8.4V14.9h2.1V9.2H2.7v5.7h2.1
		v15.4c0,3.4,0,6.1,1.6,8.6c1.8,2.8,5,4.6,9.7,4.6C24.4,43.5,27.3,39.2,27.3,30.3L27.3,30.3z"/>
</g>
</svg>
